<?xml version="1.0" encoding="utf-8"?>
<!-- Generator: Adobe Illustrator 18.1.1, SVG Export Plug-In . SVG Version: 6.00 Build 0)  -->
<svg version="1.1" id="Layer_1" xmlns="http://www.w3.org/2000/svg" xmlns:xlink="http://www.w3.org/1999/xlink" x="0px" y="0px"
	 viewBox="0 0 944.3 1043.8" enable-background="new 0 0 944.3 1043.8" xml:space="preserve">
<path fill="#231F20" d="M651.4,282.9c62.3,4,21.9,10,22.5,14.8c0.4,3.1-81.2,6.5-44.9,9.2c19.1,1.4,114.6,2.4,134.8,3.6
	c44.8,2.6-52.1,4.9-67.5,7.7c-11.2,2.1,46.9,4.3,22.6,6.4c-14.5,1.3-89.7,2.5-89.9,3.8c-0.2,1.3,74.9,2.5,89.9,3.8
	c27.3,2.4,12.7,5.3,0,7.9c-17.7,3.6,0.8,7.2-67.5,10.5c36.2,0.6,88.3,0.7,112.4,1.7c34.4,1.4-14.6,3.3-67.5,4.1
	c181,1.7,73.2,4.3,45,8.3c-58.9,8.3,86.3,17.9-67.5,25.9c10.8,1,94,1.2,112.2,2.1c25.8,1.4-31.9,3.4-44.8,4.9
	c-43.9,5.2-58.8,9.1-22.5,13.7c-35.5,0.8,58.4,0.4,67.2,0.9c-36.9,11.9-48.4,24.1-44.8,35.7c1.2,4.7-71,9.4-45,13.9
	c4.1,0.7,43.4,1.4,45,2.1c1.9,0.9-32.5,1.9-22.5,2.8c9.9,0.9,84.4,1.7,89.7,2.6c9.6,1.5-108,3.2-112.2,4.7
	c-5.1,1.9,94.4,3.7,89.8,5.6c-2.3,1-56.5,1.9-67.2,3c-27.4,2.7,9.9,5.8,22.5,8.6c11,2.4,120.6,4.6-45,6.6c75.2,1,59.6,2.9,134.8,3.8
	c-21.1,1.1-100,1.6-134.8,2.6c52.8,1.3,13.5,2.5,112.2,3.6c-16.2,6-12.7,10.4,0,16.7c-29.2,0.9,46.5,0.8,90,1.1
	c-2,0.7-134,0.2-112.5,1.1c-37.4,2.7,98.8,5.2,90,7.9c-8,2.5-218.7,5.3,22.5,6.6c-28.1,1-113.6,1.5-157.2,2.4
	c136.4,1.5,94.4,3.5,44.8,5.8c43.9,0.6,170,0.4,157.4,1.5c-52.7,0.5-50.2-0.2-89.9-0.4c-64.2,3,23.6,5.3,22.6,7.9
	c-0.7,1.1-66.1,0.2-157.2,0.4c11.4,1.6,112,2.8,112.2,4.3c0.1,1.4-88.2,2.5-89.8,3.8c-1.9,1.5,57.7,2.9,112.2,4.3
	c-188,2.4,54.2,6.6-134.7,9.2c91.8,0.2,53.9,1.6,179.7,1.5c-90.7,1.2-89.3,2.9-112.5,4.5c-91.1,6.1,12.6,13-22.3,20.5
	c-49.6,10.7-28.8,21.6,22.3,32.7c15.6,3.3,116.2,6.7-22.3,9.2c181,1.7,71.9,4.5,44.8,8.3c-57.5,8.2,85.1,18.3-67.2,25.9
	c-9.5,0.7,95,1.2,112.2,2.1c25.8,1.4-28.6,4.1-45,6.2c-18.6,2.5-33.9,4.9-67.2,6H89.9c42.5-12.2,41.4-24.4,44.9-36.1
	c1.2-4.2-12.4-8.6,22.6-12.6c8.2-1,41.5-2,44.9-3c8-2.4-56.5-5.3-44.9-7.3c4.5-0.8,49.6-1.4,44.9-2.1c-9.1-1.4-107.9-2.8-112.4-4.3
	c-4.5-1.5,66.7-3.1,89.8-4.7c63.2-4.4,67.5-8.9,67.5-14.1c0-3,1.2-6.2-22.4-9c-29.8-3.6-160.1-7.4,0-11.1c48.4-0.5-28.9-0.6-45-0.9
	c-71.6-1.2,25.2-4.6,22.6-7.1c-2.4-2.1-24.6-4-22.6-5.1c5-1.7-6.5-3.5-22.3-5.6c-14.3-1.9-71.2-4.3-45-6
	c19.3-1.2,95.9-1.6,112.4-2.8c42.3-3.1-67.3-6.8-67.3-10.3c0-3.5,69.5-7.2,67.3-10.9c-2.7-4.8-155-9.8,22.4-12.8
	c-91.6-3.8-8.9-7.8,0-11.5c4.5-1.9-5.7-3.8,0-5.8c6-2.1,44.1-4.3,22.5-6.2c-16.7-1.4-116.1-2.9-134.8-4.3c-29.8-2.3,57.8-5,67.5-7.7
	c7.2-2-39.8-4.1-22.6-5.8c15.1-1.5,93-2.8,89.9-4.3c-3-1.4-77.7-2.7-89.9-4.1c-55.2-6,49.7-11.7,45-18c35.6-0.5-29-0.6-45-0.9
	c-81.7-1.3-42.4-3.6,0-4.9c-121.1-1.7-66.6-4.3-44.9-7.5c11-1.6,38.9-3.5,44.9-5.1c13.2-3.6-48.3-7.5-44.9-10.9
	c1.7-1.7,31.4-3.4,44.9-5.1c14-1.7,62.3-3.7,45-5.1c-14.3-1.2-39.5-1-67.3-1.5c-88.8-1.7-17.7-4.7,0-6.8c22.4-2.7,38.4-5.3,44.9-7.3
	c2-0.6,3.9-1.2,0-1.9c-9.2-1.6,0.5-3.4-89.9-4.9c43.4-11.8,41.5-24,45-35.5c1.4-4.9,45.3-9.9,22.3-14.1c-8.1-1.5,15.3-3.1,0-4.5
	c-11.5-1-88.8-2-89.8-3c-1.4-1.5,110.6-3,112.4-4.5c2-1.8-94-3.6-89.9-5.3c3-1.3,60.9-2.6,67.3-3.8c10.4-2-17.2-4-22.3-6
	c-5.5-2.1-61.2-4.2-45-6c9.6-1.1,64.2-1.8,67.3-2.8c-48.1-1.1-57.4-2.6-112.2-3.6c117.7-1.4,144.4-3,89.9-4.7
	c-141.5-2.6-42.8-6.1-45-9.4c-1.1-1.7-20.5-3.4-22.4-5.1c-2-1.9,56.4-4.1-89.9-4.7c134.7-0.1,100.6-1,112.3-1.7
	c12.1-0.7,0.9-1.6-17.2-2.5"/>
<path fill="#231F20" d="M622.7,720c-3.7,68.9-9.4,24.3-13.9,24.8c-2.9,0.4-6.1-89.7-8.6-49.6c-1.3,21.1-2.3,126.7-3.4,149
	c-2.5,49.5-4.6-57.6-7.2-74.6c-1.9-12.4-4,51.8-6,24.9c-1.2-16-2.4-99.1-3.6-99.4c-1.2-0.3-2.4,82.8-3.6,99.4
	c-2.3,30.2-5,14.1-7.4,0c-3.4-19.6-6.8,0.8-9.9-74.6c-0.6,40-0.7,97.6-1.6,124.2c-1.3,38-3.1-16.1-3.8-74.6
	c-1.6,200.1-4.1,80.9-7.8,49.8c-7.8-65.1-16.8,95.4-24.3-74.6c-1,12-1.1,103.9-2,124c-1.3,28.5-3.2-35.3-4.6-49.5
	c-4.9-48.5-8.5-64.9-12.9-24.8c-0.8-39.3-0.4,64.5-0.8,74.3c-11.2-40.8-22.6-53.5-33.6-49.5c-4.4,1.4-8.9-78.4-13.1-49.8
	c-0.7,4.5-1.4,48-2,49.8c-0.9,2.1-1.8-36-2.6-24.8c-0.8,10.9-1.6,93.3-2.4,99.1c-1.4,10.6-3-119.4-4.4-124
	c-1.7-5.7-3.4,104.4-5.2,99.2c-0.9-2.5-1.8-62.4-2.8-74.3c-2.5-30.3-5.5,10.9-8,24.8c-2.2,12.1-4.3,133.3-6.2-49.8
	c-0.9,83.1-2.7,65.9-3.6,149c-1-23.3-1.5-110.5-2.4-149c-1.2,58.3-2.4,14.9-3.4,124c-5.6-17.9-9.8-14-15.7,0
	c-0.9-32.2-0.8,51.4-1,99.5c-0.7-2.2-0.1-148.2-1-124.3c-2.5-41.4-4.9,109.2-7.4,99.5c-2.3-8.8-5-241.8-6.2,24.8
	c-1-31-1.4-125.6-2.2-173.8c-1.4,150.8-3.3,104.3-5.4,49.5c-0.5,48.5-0.4,187.9-1.4,173.9c-0.5-58.3,0.2-55.5,0.4-99.4
	c-2.8-71-5,26-7.4,24.9c-1-0.8-0.2-73-0.4-173.8c-1.5,12.6-2.6,123.8-4,124.1c-1.3,0.1-2.4-97.5-3.6-99.2c-1.4-2.1-2.7,63.8-4,124
	c-2.3-207.9-6.2,60-8.6-148.9c-0.2,101.5-1.5,59.6-1.4,198.6c-1.1-100.2-2.8-98.7-4.2-124.3c-5.8-100.8-12.2,13.9-19.3-24.7
	c-10.1-54.9-20.3-31.8-30.8,24.7c-3.1,17.2-6.3,128.5-8.6-24.7c-1.6,200.1-4.2,79.5-7.8,49.5c-7.7-63.5-17.2,94-24.3-74.3
	c-0.7-10.5-1.2,105-2,124c-1.3,28.5-3.8-31.6-5.8-49.8c-2.3-20.5-4.7-37.5-5.6-74.3V99.4c11.4,47,22.9,45.8,34,49.6
	c4,1.4,8-13.7,11.9,24.9c0.9,9.1,1.9,45.9,2.8,49.6c2.2,8.8,5-62.5,6.8-49.6c0.7,5,1.3,54.9,2,49.6c1.4-10.1,2.7-119.2,4-124.2
	c1.4-4.9,2.9,73.8,4.4,99.2c4.1,69.9,8.4,74.6,13.3,74.6c2.8,0,5.8,1.4,8.4-24.8c3.3-32.9,7-177,10.5,0c0.5,53.5,0.6-32,0.8-49.8
	c1.1-79.1,4.4,27.9,6.6,25c1.9-2.6,3.7-27.2,4.8-25c1.6,5.5,3.3-7.2,5.2-24.7c1.8-15.8,4-78.7,5.6-49.8c1.2,21.4,1.5,106,2.6,124.2
	c2.9,46.7,6.4-74.4,9.7-74.4c3.3,0,6.8,76.8,10.3,74.4c4.5-3,9.2-171.3,12.1,24.8c3.6-101.3,7.3-9.8,10.9,0c1.8,5,3.6-6.3,5.4,0
	c1.9,6.6,4.1,48.8,5.8,24.8c1.4-18.5,2.7-128.3,4-149c2.1-32.9,4.7,63.9,7.2,74.6c1.9,8,3.8-44,5.4-25c1.4,16.7,2.7,102.8,4,99.4
	c1.3-3.3,2.6-85.9,3.8-99.4c5.6-61,11,54.9,16.9,49.8c0.5,39.4,0.6-32.1,0.8-49.8c1.2-90.3,3.4-46.8,4.6,0c1.6-133.8,4-73.6,7-49.6
	c1.5,12.1,3.3,43,4.8,49.6c3.4,14.6,7-53.3,10.3-49.6c1.6,1.9,3.2,34.7,4.8,49.6c1.6,15.4,3.5,68.9,4.8,49.8
	c1.1-15.8,0.9-43.7,1.4-74.4c1.6-98.1,4.4-19.6,6.4,0c2.6,24.8,5,42.5,6.8,49.6c0.6,2.2,1.2,4.3,1.8,0c1.5-10.2,3.2,0.5,4.6-99.4
	c11.1,48,22.5,45.9,33.4,49.8c4.6,1.5,9.3,50,13.3,24.7c1.4-9,2.9,17,4.2,0c1-12.7,1.8-98.1,2.8-99.2c1.4-1.5,2.8,122.3,4.2,124.2
	c1.7,2.2,3.4-103.9,5-99.4c1.2,3.3,2.5,67.3,3.6,74.4c1.8,11.4,3.8-19,5.6-24.7c1.9-6.1,3.9-67.7,5.6-49.8c1,10.6,1.7,71,2.6,74.4
	c1-53.2,2.4-63.4,3.4-124c1.3,130.1,2.8,159.6,4.4,99.4c2.5-156.4,5.7-47.3,8.8-49.8c1.6-1.2,3.2-22.7,4.8-24.8
	c1.8-2.2,3.8,62.3,4.4-99.4c0.1,148.9,0.9,111.2,1.6,124.2c0.7,13.4,1.5,1,2.3-19"/>
</svg>
