<?xml version="1.0" encoding="utf-8"?>
<!-- Generator: Adobe Illustrator 18.1.1, SVG Export Plug-In . SVG Version: 6.00 Build 0)  -->
<svg version="1.1" id="Layer_1" xmlns="http://www.w3.org/2000/svg" xmlns:xlink="http://www.w3.org/1999/xlink" x="0px" y="0px"
	 viewBox="0 0 5.8 131.5" enable-background="new 0 0 5.8 131.5" xml:space="preserve">
<path fill="#231F20" d="M2.8,52.6c0,1.2,0.3,2.6,0.4,3.8c0,1.6-0.3,3.3-0.2,4.9C3,63,3.6,64.4,3.7,66c0.1,2.7-0.9,5.7-0.9,8.4
	c0,3.3,0.8,6.5,0.7,9.9c0,1.7-0.5,3.4-0.5,5.3C2.7,94.3,3,100,3.1,104.8c0.1,4.2,1,8.1-0.4,11.8c0.6,1.8,0.5,5.1,1.1,6.9
	c-0.2,1.9-0.8,2.9-1.1,4.6c0.4,2.3-1.4,1.4-2.8,3.5c-2.3-2.4-1.6-1.7-1.7-4.2c-0.2-4,0.5-8.9,0.5-13.7c0.1-3.6-0.3-7.3-0.2-10.3
	c0.1-2.6,0.7-5.1,0.7-7.6c0-2.5-0.6-4.9-0.7-7.2C-1.8,77.8-1,67.5-1,56.4c0.3-0.9-0.2-1.1-0.4-1.5c-0.7-2.3-0.3-6.4,0-8.8
	c-1-3.1-0.5-7.6-0.4-13.3c0.1-2.9,0.3-6.2,0.4-9.1c0.1-6.4-0.4-13.3-0.4-19.4c0-3,1.8-6.1,4-3.1C4.4,15.7,2.5,44.7,2.8,52.6"/>
</svg>
