<?xml version="1.0" encoding="utf-8"?>
<!-- Generator: Adobe Illustrator 18.1.1, SVG Export Plug-In . SVG Version: 6.00 Build 0)  -->
<svg version="1.1" id="Layer_1" xmlns="http://www.w3.org/2000/svg" xmlns:xlink="http://www.w3.org/1999/xlink" x="0px" y="0px"
	 viewBox="0 0 709.2 7.6" enable-background="new 0 0 709.2 7.6" xml:space="preserve">
<path fill="#231F20" d="M709.2,4.2c-6.8,0.5-17.2,0.2-25.2,0.2c-5.3,0-11.2-0.7-15.7-0.4C665.8,4.2,664,5,662,5.1
	c-4.5,0.4-8.4-0.4-13.2-0.5c-3.5-0.1-7.3,0.4-11,0.2c-2.2-0.1-4.3-0.7-6.6-0.7c-2.3,0-4.3,0.6-6.6,0.7c-4.1,0.2-9,0.1-13.5,0
	c-6.2-0.1-12.4,0-17.9-0.5c-1.1,0.3-1.3,0.7-2.9,0.9c-2.4,0.3-5.6-0.1-7-0.5c-2.9,1.5-7.4,0.6-14.3,0.4c-14.3-0.5-30.7,0.7-44.3-0.5
	c-1.7,0.1-2,0.8-3.7,0.9c-2.3,0.2-5.8-0.3-8.4-0.4c-8.9-0.4-15.6-0.5-23.4-0.2c-1.4-0.3-0.8,0.5-1.5,0.5
	c-20.4-0.3-41.2-0.4-61.1-0.4c-8.1,0-16.1-0.6-23.8-0.4c-1.2,0-2.5,0.3-3.7,0.4c-1.6,0-3.2-0.3-4.8-0.2c-1.5,0.1-2.9,0.7-4.4,0.7
	c-2.6,0.1-5.5-0.9-8.1-0.9c-3.2,0-6.3,0.8-9.5,0.7c-1.7,0-3.3-0.5-5.1-0.5c-4.6-0.2-10,0.1-14.6,0.2c-4.1,0.1-7.8,1-11.3-0.4
	c-1.7,0.6-4.9,0.5-6.6,1.1c-1.9-0.2-2.8-0.8-4.4-1.1c-2.2,0.4-4.3,0.1-6.2,0.9c-10.2-0.1-17.8-0.1-28.5,0c-1.6-0.2-1.4,0.4-1.8,0.7
	c-1.2,0-0.3-1.1-1.8-0.9c-4.6-0.3-8.9,0.8-13.5,0.7c-4.2-0.1-9.2-1.8-11.3,0.2c-1.7-0.2-2.5-0.9-4-1.3c-2.5,1.1-6.1,0.8-9.9,0.4
	c-1,0.4-0.6,1.4-2.6,1.3c-0.9-0.4,0.4-0.4,0.7-0.7c-5.1-0.5-9.1,0.2-13.5,0.2c-1.8,0-0.4-0.5-0.7-1.3c-2.7,0.1-4.8,0.9-7.3,0.9
	c-2.3,0-4.3-0.7-6.6-0.7c-2.5,0-4.9,0.5-7.3,0.9c-4.1-1.5-11.3,0.4-15.7-1.1c-0.3,0.7-2.8,0.4-2.6,1.4c-2.1-0.7-5-0.7-7.7-0.9
	c-10.5-0.7-22.2,0.1-35.1-0.2c-18.4-0.4-37-0.2-56,0.2c-5.7,0.1-11.5,0.9-15.7-0.2c-2.9,1.5-7.7,0.6-14.3,0.4
	C54.8,5,37.4,6.2,24.5,4.9c-1.2-0.1-2.1,0.8-3.7,0.9c-2.3,0.2-6.9-0.2-10.6-0.4C6,5.3,1.8,5.2,0,4.9v-5.2
	c20.8,0.3,41.8,0.3,61.8,0.4c7.2,0,14.6-0.1,21.6,0.2c1.6,0.1,3.4,0.3,5.1,0.4c4.1,0.1,9-0.5,12.4-0.4c1.4,0,2.4,0.4,3.7,0.4
	c2.5-0.1,4.9-0.9,7.3-0.9c2.5,0,5.3,0.5,8,0.7c7.5,0.5,15.3,0.5,24.2,0.5c5.1,0,10.5,0,15.4-0.2c6.1-0.2,12.7-1.3,19,0
	c0.9,0.4,1-0.2,1.5-0.4c2-0.6,7.9,0.2,12.1,0.2c3.5,0,6.8-0.2,8.8-0.2c3,0,5.9-0.1,9.5-0.2c3.2-0.1,7.3-0.6,10.2-0.4
	c2.1,0.2,2.7,0.8,4.8,0.9c5.3,0.3,11.6-0.5,17.6-0.5c5.9,0,12.4,0.6,18.7,0.5c8.2,0,16.7-1.2,22,0.2c6.5-0.7,13.3-0.1,19.8,0
	c3.2,0,6.5,0,9.9,0c3.5,0,7.4,0.4,10.6,0.2c2.5-0.1,4.9-0.9,7.3-1.1c3.9-0.2,8.5,0.5,13.2,0.5c3.5,0.1,7-0.3,9.9-0.2
	c2.5,0.1,4.9,0.7,7.3,0.7c2.4,0,4.7-0.6,7-0.7c10.2-0.4,20.1,0.4,30.7,0.4c0.8,0.3,1-0.2,1.5-0.4c2.2-0.7,6.2-0.3,8.4,0
	c3-1,7.3-0.5,12.8-0.4c2.8,0.1,5.9,0.3,8.8,0.4c6.2,0.1,12.8-0.4,18.7-0.4c2.9,0,5.9,0.3,8.8,0.4c3,0.1,6.4,0.5,8.8,0.4
	c2-0.1,1.6-0.3,2.6-0.5c2.9-0.7,8-0.1,11.7,0c4.7,0.2,9.1,0.3,12.4,0.4c1,0,2.1,0,3.3,0c2.7-0.1,5.8,0,8.4-0.7
	c20.2,0.3,41,0.3,60.7,0.4c8.4,0,17,0.4,24.2,0.2c2.6-0.1,5.3,0.1,7.7,0c1.8-0.1,3.4-0.7,5.1-0.7c2.5,0,5.2,0.9,7.7,0.9
	c3,0,6.2-0.8,9.1-0.7c2.2,0,4.5,0.5,6.6,0.5c3.3,0.1,6.9-0.1,10.2-0.2c3.5,0,7.2-0.5,10.2-0.4c1.8,0.1,3,0.5,4.8,0.5
	c1.9-0.4,4.4-0.5,6.2-0.9c2.4,0.9,5.1,1.2,8.1,0.7c4.5-1.1,10.4-0.3,16.1-0.4c2.9,0,5.9-0.2,8.8-0.2c3.2,0,6.9,0.5,8-0.7
	c0.2,1.1,1.7,0.8,2.9,0.9c1.3,0.1,2.7,0,4.3-0.1"/>
</svg>
