<?xml version="1.0" encoding="utf-8"?>
<!-- Generator: Adobe Illustrator 18.1.1, SVG Export Plug-In . SVG Version: 6.00 Build 0)  -->
<svg version="1.1" id="Layer_1" xmlns="http://www.w3.org/2000/svg" xmlns:xlink="http://www.w3.org/1999/xlink" x="0px" y="0px"
	 viewBox="0 0 152.3 104.4" enable-background="new 0 0 152.3 104.4" xml:space="preserve">
<path fill="#D6D1BA" d="M21.9,1.2L22.2,2l0.4,1.6l6.3,0.3l0.4,0.3l0.2,9.9l0.3,16.1l-0.3,9.1l0.4,8.5l-0.9,6.2l0.4,2.8L28,59.6
	l-2.2,1.2l-1.7,1.3l-0.8,1.3l0.4,0.3l0.8,0.7l0.6-0.6l2.5,0.5l7.1-2.3l1.9-1.4l2.6-2.4l2.3-3.4l1.2-0.8l0.8-2l0.1-2.6l1.2-4.7
	l0.1-11.4l-0.1-3.7l0.3-14.5l0.1-10.4l0.1-1.4l2.1-0.2l4.8,0.5l-0.1-1.2L51.5,1l-0.4,0.2L51,1.3l-5.9-0.2l-9.7-0.4l-9.7-0.1
	L21.9,1.2z M5.7,35.1l-1.4,1.5l-0.9,1.7l-1.1,0.5l-0.1,0.3l-1.4,1.4L0,44l0.3,4.7l0.2,1.4l0.9,3.2l0.8,1.5L6,58.4l2.3,1.6L9,61
	l1.3,0l2.5,1.2l2.6,2l2.4-0.3l0.6-0.3l0.4-0.7l-0.7-0.8l-2.4-1.4l-5.5-5.2l-1.4-3.2L9.1,51l2.7,0.6l1.5-0.1l1.9-0.6l1.2-0.7l2.1-2.2
	l2-3.8L20,40.7l-1.9-4.3l-2.1-1.6l-2.4,0.1l-4.6-0.2l-1.8,0L5.7,35.1z"/>
<path fill="#D6D1BA" d="M67.6,0l-0.3,1.3l0.7,0l0.4,0.2l-0.8,1l0,0.1l-0.2-0.3l-0.1,0l0.9,1.1l0.2-0.2l1.3,0l-0.5-0.5l-0.2-0.8
	l1,0.1l-0.6-0.4l0-0.1L67.6,0z M77.3,0.7l-1,0.1L77,1.2l-0.5,0.2L75.7,2l0.2-1.2l-0.3,0l-2.9-0.2l-1.3,0.9l-0.3-0.8l-0.6-0.1
	l0.2,0.7L71,1.8l0.5-0.1l0.1,0.2l-0.8,1.2l-0.3,0.1l4.8,0.1l0.8,0.6l0.1,2.5l0.5,1.4l0.5,0.6l0.6,1.5l-0.2,1.5l0,0.2l1.2,1.6
	l0.4,0.6l0.5,1l0.2,1.4l0.2,1.6l2,3.4l-1,0.2l0,0.4l0.4,0.9l2.1,4.6l0.1,1L83.5,28L83,27.5l-0.3,0.7l0.8,0.4l0.8-0.1l0.3,1.3
	l0.5,2.1l1.3,1.2l-0.6,2.1l1.5,1l0.7,4.3l1.9,3.7l1.1,2.7L90,47.5l0.4,0.2l0.6,0l1.7,5l0.6,0.9l2,6.4l0.7,1.6l1,0.8L97,63.3l0.7,0.6
	l1-2.5l2-6.6l0.7-1.9l2.5-7l0.4-1.6l0.2-1.3l1.3-2.9l-0.4-0.4l-2.1-4l0.4-2.5l-2.2-3.1l0.3-1.2l-1.5-3.2l-2.4-5.8l-0.8-2.3L97,16
	l-1.6-3l-0.8-1.3l-0.5-4.3l-0.8-0.6l-0.6-0.8l-0.6-2.4l-1.4-2.1l-0.2-0.7l-1.8,0.4l-2.1-0.7L85,1.8l0.1-0.4l-0.7-0.7l-4.8,0.1
	l-0.4-0.6L77.3,0.7z M71.9,1.3l1.5-0.6l1.1,0.8l-1.3,0.2l-0.6,0.2L71.9,1.3z M75.9,0.8l0.2,0l0.2,0l-0.4-0.2L75.9,0.8z M70.7,1.5
	l0-0.1L70.4,1L70.7,1.5z M138.2,2.2L137.7,2l-0.3,0.4l0.1-0.5l-0.3-0.4l-0.5,0.3l-0.3,0l0.2,0.2l0.5-0.1L137.1,2l-0.2,1.3l0.6-0.1
	l0.4-0.1l0.5,0l0.4-0.7L138.7,2l-0.9-0.7L138.2,2.2z M117.6,2.4l0,0.2l-0.1,0l-0.6,0.4l-2.5,7.7l-0.5,1.3l-0.3,1.2l-3.2,7.5
	l-1.1,2.3l-0.8,1.6l-0.6,1l0,2.4l0.5,0.5l0.8,1l0-0.7l2-5l4.9-10.2l0.5-1l-0.1,1.9l0.6,1.2l-0.4,1.1l0.2,0.5l-0.7,9.2l0.9,0.9
	l-0.7,9.2l0.4,9.2l-0.5,7.3l-0.2,2l0.8,1.2l-0.5,1.5l0,2.8l-2,1.3l-2.8-1l-1.5,1l-0.7,1.4l0.8,0l5.6-0.4l1,0.6l0.2,0.6l4.2-0.6
	l0.4,0.1l8.5-0.7l4.5,0.9l1.8-1l1,0.4l0.3-0.1l0-1.3l-1.7,0.1l-0.9,0.2l-0.6,0.8l-1,0l0.2-0.4l0.4-1.3l-0.9-0.3l-0.1,0.5l-1.2-0.4
	l-0.1-5.7l0.5-3.1l-0.8-0.6l0.6-1.7l0-5.1l-0.5-2.8l-0.3-14.3l1.3-9.1l-0.9-3.8l0.3-1.6l-0.3-6.6l-0.1-2.3l1.8-0.8l-1-1l1.1-0.2
	l-1.7-0.1l0.3,0.2L131,2.5l1,0.7l0.1,0.5l-0.6-0.2l-2,0.2l0.2-0.2l0.2-0.1l0.6-1.1l-0.4-0.4L130,2.5l-1.1-0.7l-0.2,0l-1-0.2
	l-0.2,0.6l-0.4,1.2l-0.5-1.1l-0.1-0.7l-0.7,0l-0.3,0.8L124.8,2l-0.1,0.2L124.5,3L124,2.6l-1-0.2l-2.6-0.6l-2.3-0.4L117.6,2.4z
	 M118.7,2.3l0.9-0.3l0.3,0.7l0,0.1L119,2.3L118.7,2.3L118.7,2.3z M133.6,2.3l0.2,0l0,0L133.6,2.3z M134.5,3.5l1.7-0.1l0.5,0
	l-0.3-0.7l-1.9,0.3l-0.2-0.6l-0.4,0L134.5,3.5z M69.8,3.3l0.7-0.1l-0.8,0L69.8,3.3z M136.7,3.3l0.1,0.2l0-0.2L136.7,3.3z M72.7,19.4
	l1,1.5l0.4,12.4l-0.4,12.4l-0.2,0.6l0.4,0.2L73.5,49l0.8,3l-0.2,3.6l0.2,0.5l0.2,1.2l-1.4,2.3l-2.5,1.1L67,61.6l0.3,0.8L67.2,63
	l0.2,0l13.3,0.4l3.3,0.4l0-1.6l-0.4-0.4l-0.7-1.2l-0.3,0.4l-0.6-0.1l-3-0.5L77,58.7l0.1-0.6l0.3-0.5l-0.5-0.4l-0.3-5.4l-0.3-5.4
	l0.3-2.5l0.2-10.5l-0.9-10.5l-0.5-2.1l-1.6-1.8L72.7,19.4z M81.7,25.2l0.5,0.6l0-1.2L81.7,25.2z M67.1,63.1l0-0.1l-0.9-0.2
	L67.1,63.1z"/>
<path fill="#D6D1BA" d="M48.6,63v-1.2c0,0-0.3-1.1-0.2-2.1c0.1-1,0.8-2.4,0.7-2.9c-0.1-0.5-1-6.8-0.4-6.9c0.6-0.1,5.1,0,6,0.2
	c0.9,0.2,3.5-0.6,3.6-0.2c0.1,0.4-0.1,1-0.1,1l0.1,2.9L58,58.3l0,4.3c0,0,0.1,0.1-0.4,0.5C57.2,63.4,48.6,63,48.6,63"/>
<path fill="#D6D1BA" d="M141.5,63.1l-0.2-0.8V58c0,0-0.5-2.7,0-3.4c0.5-0.7-0.1-1.9,0-2c0.1-0.1,0-1,0-1h1.5c0,0,2.4-0.2,3.3,0
	c0.9,0.2,2.3,0.2,2.3,0.2s2.2-0.1,2.6-0.2c0.4,0,0,0.3,0,0.3l-0.2,5l0.3,4.6l-0.1,1.6l-0.8,0.2c0,0-2.1-0.1-3.1,0
	c-1,0.1-3.8,0-3.8,0L141.5,63.1z"/>
<path fill="#D6D1BA" d="M144.2,88.4c-2-0.5-5-1.1-5.4-2.7c-0.3-1.5,0.8-2.5,1.9-2.7c3.4-0.5,6.4,1.5,7.9,2.5c0.8-0.8,1-2.1,1.8-2.9
	c0.4-0.5,1.2-0.5,1.3-1.2c-1.1-0.9-2.6-2-4-2.7c-1.4-0.7-2.3-0.6-4.2-0.9c-1-0.1-2.1-0.4-3.1-0.3c-0.6,0.1-1.4,0.2-2.3,0.6
	c-1,0.4-1.5,0.8-2.4,1.6c-0.9,0.8-1.5,1.2-1.9,2c-1.2,2.5-0.7,7.4,0.6,9.1c1.4,1.7,4.1,1.7,6.4,2.7c0.7,0.3,1.5,0.9,2.3,1.2
	c1.3,0.6,3.2,0.9,3.4,2c0.4,2-3.1,2.4-5.1,2.2c-2.3-0.2-4.2-1.9-5.8-2.9c-1.1,1.5-2.9,2.3-3.5,4.2c1.5,1.8,3.7,2.5,6.4,3.1
	c2.3,0.6,4.1,1.5,6.9,0.9c3.8-0.9,6.5-3.4,6.9-7.1C152.8,91.1,148.4,89.6,144.2,88.4"/>
<path fill="#D6D1BA" d="M54,79c-1.6-0.2-2.8-1-4.4-1.2C48,77.6,45.5,77.7,44,78c-2.3,0.5-6.7,3.3-7.8,5.3c-1.2,2.1-2.6,5.1-2.8,7.3
	c-0.3,3.9,1.4,5.6,2.5,7.8c0.6,1.3,0.6,1.2,1.7,1.9c0.3,0.2,0.6,0.5,0.9,0.8c1.2,0.9,2.3,1.1,3.5,1.8c0.5,0.2,0.7,0.6,1.1,0.8
	c1.7,0.6,4.9,0.7,6.8,0.6c1.7-0.1,3.5-1.3,4.6-1.9c1.9-1.1,3.1-1.7,4.2-3.8c0.6-1.2,1.6-2.8,1.9-4c0.9-3.6,0-7.2-0.6-9.8
	C58.3,82.4,56,80.9,54,79 M53.8,94.9c-0.5,0.9-1.8,2.5-2.5,2.9c-1.6,1-4.9,1.4-6.7,0.6C43.8,98,41.6,96,41.1,95
	c-0.4-0.8-0.3-1.7-1.1-2.5c-0.2-2.8,0.4-4.6,1.6-6.1c0.4-0.5,0.7-1.1,1-1.5c3.1-2.7,8.8-2.1,10.6,1.2C54.2,88.1,55.2,92.4,53.8,94.9
	"/>
<path fill="#D6D1BA" d="M11.2,98.4c-0.3-6.6-0.1-13.8,0.2-20c-1.7-0.2-4.5-0.4-5.9-0.1c-0.5,1-0.2,3.8-0.1,5.6
	c0.2,6.8-0.2,14.4-0.1,19.7c5.9,0.5,12.4-0.2,18.3,0.1c0-1.6,0.7-3.6,0.1-5.1C19.8,98.5,15.4,98.3,11.2,98.4"/>
<path fill="#D6D1BA" d="M72.1,78.3c-0.6,1.5-0.3,3.4-0.1,5.3c0.5,6.4-0.8,14-0.1,20.1c1.6,0.5,4,0.1,5.8,0c0.3-3.2,0.3-6.7-0.1-9.7
	c4.2,0.1,8.2,0,12.1,0c0.3-1.5,0.4-3.8,0-5.1c-4-0.1-8.5-0.3-12.1-0.1c0.1-1.7-0.3-3.8,0.2-5.1c4.8-0.2,9.2,0.5,13.5-0.1
	c0.2-1.4,0.2-3.6,0-5C85,78.2,78.2,78.3,72.1,78.3"/>
<path fill="#D6D1BA" d="M102.8,78.3c-0.5,1.5-0.5,3.6-0.2,5.4c2.2,0.7,5.4,0.1,7.6,0.2c-0.1,5.9,0,13.6-0.4,19.7
	c1.7,0.2,3.4,0.3,6.1,0.2c0.1-6.6,0.2-13.3,0.2-19.9c2.3-0.4,5,0.3,7.3-0.1c0.6-1.4,0.2-4.1,0.2-5.4
	C117.1,78.1,109.8,78.6,102.8,78.3"/>
</svg>
