<?xml version="1.0" encoding="utf-8"?>
<!-- Generator: Adobe Illustrator 15.0.2, SVG Export Plug-In . SVG Version: 6.00 Build 0)  -->
<!DOCTYPE svg PUBLIC "-//W3C//DTD SVG 1.1//EN" "http://www.w3.org/Graphics/SVG/1.1/DTD/svg11.dtd">
<svg version="1.1" id="Layer_1" xmlns="http://www.w3.org/2000/svg" xmlns:xlink="http://www.w3.org/1999/xlink" x="0px" y="0px"
	 width="808.009px" height="4.854px" viewBox="-3.384 298.646 808.009 4.854" enable-background="new -3.384 298.646 808.009 4.854"
	 xml:space="preserve">
<path fill="#231F20" d="M804.544,303.5l0.081-3.613c-1.692,0.113-7.783-0.902-12.747,0.113c-1.354,0.338-3.046,0.226-3.271-1.015
	c-1.24,1.354-5.414,0.79-9.024,0.79c-3.271,0-6.655,0.226-9.926,0.226c-6.43,0.113-13.086-0.79-18.162,0.451
	c-3.384,0.564-6.43,0.226-9.137-0.79c-2.03,0.451-4.851,0.564-6.994,1.015c-2.03,0-3.384-0.451-5.414-0.564
	c-3.384-0.113-7.558,0.452-11.506,0.452c-3.723,0.112-7.783,0.338-11.506,0.225c-2.369,0-4.964-0.563-7.445-0.563
	c-3.271-0.113-6.881,0.79-10.265,0.79c-2.82,0-5.866-1.016-8.687-1.016c-1.917,0-3.723,0.677-5.753,0.789
	c-2.707,0.113-5.753-0.112-8.686,0c-8.122,0.227-17.823-0.225-27.298-0.225c-22.223-0.113-45.686-0.113-68.472-0.452
	c-2.934,0.79-6.43,0.676-9.476,0.79h-3.723c-3.723-0.113-8.686-0.226-13.987-0.451c-4.174-0.113-9.927-0.79-13.198,0
	c-1.128,0.226-0.677,0.451-2.933,0.564c-2.708,0.112-6.543-0.339-9.927-0.451c-3.271-0.113-6.655-0.452-9.927-0.452
	c-6.655,0-14.101,0.564-21.095,0.452c-3.271-0.113-6.768-0.339-9.926-0.452c-6.205-0.113-11.055-0.677-14.439,0.452
	c-2.481-0.339-6.993-0.79-9.476,0c-0.563,0.225-0.789,0.789-1.691,0.451c-11.957,0-23.125-0.903-34.631-0.451
	c-2.595,0.112-5.189,0.789-7.896,0.789s-5.414-0.677-8.234-0.789c-3.271-0.113-7.219,0.338-11.167,0.225
	c-5.302,0-10.491-0.789-14.89-0.563c-2.707,0.226-5.415,1.128-8.234,1.241c-3.61,0.225-8.009-0.227-11.958-0.227h-11.167
	c-7.332-0.112-15.002-0.789-22.335,0c-5.979-1.579-15.567-0.225-24.816-0.225c-7.107,0.112-14.439-0.564-21.094-0.564
	c-6.769,0-13.875,0.902-19.854,0.564c-2.369-0.113-3.046-0.79-5.415-1.016c-3.271-0.226-7.896,0.338-11.506,0.451
	c-4.061,0.113-7.332,0.226-10.716,0.226c-2.256,0-5.979,0.226-9.927,0.226c-4.738,0-11.393-0.902-13.649-0.226
	c-0.564,0.226-0.677,0.902-1.692,0.451c-7.106-1.466-14.551-0.226-21.433,0c-5.527,0.226-11.619,0.226-17.372,0.226
	c-10.04,0-18.838,0-27.298-0.564c-3.046-0.225-6.204-0.789-9.024-0.789c-2.707,0-5.415,0.902-8.234,1.016
	c-1.467,0-2.595-0.451-4.174-0.451c-3.835-0.113-9.363,0.563-13.988,0.451c-1.917-0.113-3.948-0.339-5.753-0.451
	c-7.896-0.339-16.244-0.226-24.365-0.226c-22.561,0-65.539-0.902-73.097-1.692v4.854H804.544z"/>
</svg>
