<?xml version="1.0" encoding="utf-8"?>
<!-- Generator: Adobe Illustrator 18.1.1, SVG Export Plug-In . SVG Version: 6.00 Build 0)  -->
<svg version="1.1" id="Layer_1" xmlns="http://www.w3.org/2000/svg" xmlns:xlink="http://www.w3.org/1999/xlink" x="0px" y="0px"
	 viewBox="0 0 165.1 89.1" enable-background="new 0 0 165.1 89.1" xml:space="preserve">
<path fill="#0C4D7F" d="M75.3,23.5c-0.4,2.4-2.9,5.5-3.2,7.4c-1.2-1.1-2.7-1.9-3.4-3.6c2.1-2.1,4.3-4.2,5.8-6.7
	C76.3,20.3,75.4,23.1,75.3,23.5 M61.9,47.7c-2.6-3.1-0.3-7.4,0.9-10.2c1.5-3.3,3.6-6.2,5.1-8.6c1.8,0.2,2.1,2.3,3.8,2.6
	C69,37.4,66,43,61.9,47.7 M65.7,14.5c0.6-5.4,4-10.5,6.5-13.8c1.8,8.2-3.4,14.8-5.1,21.8C65.2,20.5,65.5,16.6,65.7,14.5 M72.9,20.3
	c0.5,1.1-3.6,5.9-5.4,5.7C67.3,22.4,71.4,22.3,72.9,20.3 M61.7,32.6c-3.5,5.6-7.8,12.7-13.7,16.7c3-9.7,10.2-16,16.5-23.1
	C64.6,28.4,63,30.6,61.7,32.6 M101.6,41.7c0.7-4,3.2-6.5,3.8-10.5c-3.6,1.5-5.2,4.6-8.3,6.5c0.9-2.8,2.3-5.1,2-8.8
	c-2.5,0.5-4.5,3.1-6.5,5.3c-2.1,2.2-3.9,5.2-6.3,6.8c1.7-5.5,4.4-10.1,5.2-16.2c-3.9,1.4-6.4,6.4-9.3,7.1c2.5-7,6.4-13,6-22.4
	C80,11.6,77,20.3,69,21.2c2.5-6,5.8-13.8,4.6-21.2c-4.5,0.9-6.2,4.9-7.6,8.9c-1.8,5.3-1.9,9.3-0.3,14.7C58.2,32,48,38.6,46.2,51
	c7.6-2.5,12.6-11.7,16.6-18c1.6-2.5,2.9-5.7,4.9-6.1c-3.3,5.8-13,15.1-5.5,22.3c4-2.4,6.9-7.3,9.3-11.6c2.9-5.2,5.8-11.3,4.9-18.7
	c3.9-2.8,5.9-7.1,11.7-8.4c-2.3,15.3-12,24.9-17.9,37.3c2.3-0.7,1.5,1.1,2.2,1.3c6.2-6.7,9.1-18.4,17.7-21.7
	c-2,5.5-4.1,10.9-5.7,16.8c1.7,0.7,2.2-1.8,3.2-2.9c3.4-3.7,7.5-8.1,10.4-10.3c-0.6,4.5-3,7.6-3.7,12c2.8-1.3,6.2-8.4,9.5-9.2
	c-1.8,2.8-3.6,6.4-3.5,9.5c7.1-1,9.8-7.4,15.4-11.2c0-0.3,0-0.6,0-0.8C111.1,35,107,40.5,101.6,41.7"/>
<path fill="#0C4D7F" d="M26.9,59.8c-2.7,0.2-7,1.3-6.6-0.5c-5.4,2.3-16.8,1.4-18.3-4c-0.6-2.1,1.2-7.3,2.5-9.8
	c3.8-6.9,14.4-11.2,21.1-8.8C33.9,39.8,31.9,53.6,26.9,59.8 M7.8,86.8c0.6-6.1,8.5-12.6,12.3-18.5C17.9,73.9,11.7,80.9,7.8,86.8
	 M24.3,63.1C17.4,71,7.7,76.6,6.2,88.8c7.7,2.2,10-7.3,13.5-12.7c5.3-8.2,10.2-18.5,19.7-22.3c0.4,7.5-3.5,11.5-4.7,17.7
	c6-3.6,10.8-8.1,16.6-11.9c-0.7,2.6-1.7,5.1-2.1,8c7.4,1.5,9.5-5.5,14-8c0.2,3.1,0.6,5.9,1.5,8.2c5.8-1.4,8.4-5.4,12.2-8.4
	c-4.6,1.1-6,4.8-10.7,5.9c-1.3-2-0.8-6.1-2-8.1c-3.5,1.5-7.3,10.1-13.3,9.7c-0.5-4.4,3.5-5.1,2.5-9.8c-5.6,2.1-9.6,8.4-14.5,9.3
	c1-4.4,3.2-7.8,2.1-13.9c-4.5-0.2-5.7,2.2-8.6,3.3c5.9-13.7-4-22.3-15.8-20.3c-9.7,1.6-20.2,14.4-15.4,23c2.1,3.8,6.5,3.8,11,5.3
	c0-0.3,0.1-0.5,0.1-0.8c-0.1,0.3-0.1,0.6-0.1,0.8c0.5,0.2-0.7-0.1,1.5,0.5C15.9,64.9,24.3,63.1,24.3,63.1"/>
<path fill="#0C4D7F" d="M123.5,57.8c2.8-0.9,4.5-5.6,4.6-7C127.2,53.4,121.7,54.8,123.5,57.8 M164,29.8c-3.2,1.3-6,4.1-8.2,6.8
	c-2.2,2.7-4.9,6-5,8.9C155.1,40.2,161.1,36.2,164,29.8 M145.1,54.3c1.1,1.6,1.8-3.4,3.4-1.5c2,5.8,6,9,13.3,8.1
	c-6.2,2.6-12.2-0.9-14.3-5.6c-3.4,0.8-2.7,5-5.9,6c0.3-4.2,2.7-6.8,3.7-10.5c-6.2,3.6-11.1,8.2-21.1,8.8c-0.3-1.4-2.8-0.1-2.6-2.1
	c-3.9,1.9-7.6,6.1-13.2,5c-0.7-1.7-0.7-1.8-0.4-3.5c-3.9,2.2-7.5,7-13.7,5.6c-0.8-1.6-0.9-2.4-0.4-4.1c-3.2,1.8-4.8,4.7-8.9,5.7
	c-1.1-6.2,3.7-14.9,10.3-14.8c-1.3,5.4-8.8,5.8-8.8,12.2c2.7,0,6-4.1,8.3-6.2c2.6,0.6-0.7,2.6,0.6,5.3c7.1,2.8,11.1-6,16.4-8.3
	c0.2,3.1-2.8,3.5-2.9,6.3c3.2,2.3,7-0.7,9.3-2.2c5.9-3.7,10.1-10.2,15.1-14.7c-1,5.9-4.9,9.3-7.5,13.9c8.8-1,16-4.1,21-9.3
	c5.9-6.2,8.4-17.7,18.2-19.2C161.5,40,149.1,43.8,145.1,54.3"/>
</svg>
