<?xml version="1.0" encoding="utf-8"?>
<!-- Generator: Adobe Illustrator 18.1.1, SVG Export Plug-In . SVG Version: 6.00 Build 0)  -->
<svg version="1.1" id="Layer_1" xmlns="http://www.w3.org/2000/svg" xmlns:xlink="http://www.w3.org/1999/xlink" x="0px" y="0px"
	 viewBox="0 0 50.8 67.9" enable-background="new 0 0 50.8 67.9" xml:space="preserve">
<path fill="#231F20" d="M50,66.8c0.1-0.1,0.2-0.1,0.2-0.2c0-0.2,0-0.5,0-0.7c0,0,0,0,0,0c0-0.3,0-0.6,0-0.9c0-0.1,0-0.1,0-0.2
	c0.1-1.1,0.7-2.5,0.6-3.5c0-0.4,0-0.7-0.1-1c-0.1-0.4-0.5-0.5-0.8-0.8c0.4-1.4,0.5-3,0.4-4.6c0-1.7-0.1-3.5-0.1-5.3
	c0-0.9,0-1.7,0.1-2.5c0.1-1.2,0.5-2.2,0.4-3.1c0.1-0.6,0-1.1-0.4-1.5c0.2-0.4,0.3-0.9,0.2-1.4c0.1-0.3,0.1-0.6-0.1-0.9
	c-0.2-0.4-0.5-0.5-0.7-0.7c0.3-1.5,0.2-3.1,0.4-4.7c0.1-0.8,0.1-1.7,0.1-2.5c0-0.7,0-1.4-0.1-2.1c-0.1-0.5-0.5-1-0.6-1.6
	c0.1-0.5,0.5-1.1,0.6-1.6c0.1-0.3,0.1-0.6,0-0.9c0.1-0.8-0.1-1.5-0.2-2.3c0.1-1.2,0.7-2.3,0.6-3.4c0-0.3,0-0.7-0.1-1.1
	c-0.2-0.6-0.9-1.1-1-1.8c0-0.1,0-0.3-0.1-0.5c0.1-1.1,0.4-2.3,0.4-3.5c0-1.4,0.1-3,0.1-4.4c0-1.1,0-2.1-0.2-3c0.5-0.5,0.6-1.2,0.6-2
	c0-0.7-0.3-2.6-0.4-3.3l-13.5,0H4.3c0-0.1,0-0.2-0.1-0.2c-2.2-1.6-4,0-4,1.6c0,3.2,0.5,6.7,0.4,10c-0.1,1.5-0.3,3.2-0.4,4.7
	c-0.2,3-0.6,5.3,0.4,6.9c-0.3,1.2-0.7,3.3,0,4.5c0.1,0.2,0.6,0.3,0.4,0.8c0,0.9,0,1.8,0,2.6l-0.7,3.6c0.2,0,0.3,0,0.5,0
	c-0.2,3.4-0.4,6.8-0.1,10.2c0.1,1.2,0.7,2.5,0.7,3.7c0,1.3-0.6,2.6-0.7,3.9c-0.1,1.6,0.2,3.4,0.2,5.3c-0.1,2.5-0.8,5-0.5,7.1
	c0.2,1.3,0.9,1,3.2,2.2c0.4-0.3,0.7-0.5,0.9-0.6h32.1L50,66.8z"/>
<path fill="#CFA11C" d="M24.6,5.4l-0.4-0.3c-0.4,0.2-0.8,0.4-1.1,0.7c-0.5,0.5-0.7,1.5-1.3,2.2c-0.7,0.9-2,1.5-2.4,2.5
	c-0.2,0.6,0.1,1.6-0.2,2.2c-0.1,0.1-0.1,0.3-0.2,0.4l-0.3,0.4c-0.4,0.4-0.8,0.9-1.2,1.3c-0.5,0.7-0.9,1.4-1.4,2.1
	c-1,1.3-2.5,2.4-2.9,4.2l0,0.1c-1.9,0.3-2.2,2.8-3.3,4.6c-0.8,1.2-2,2.2-2.9,3.3l0.4,0.2l-2.3,3.2v0.8c0.7,0,1.4,0.1,2.1,0.1
	c2.1,0.1,5,0.6,6.9,0.1c-0.2,2.6-0.4,5.3-0.4,7.8c0,2.7,0.5,5.5,0.6,8.2h-0.2c0,0.7,0,1.5,0,2.2c0,0,0,0-0.1,0v3.1c0,0.3,0,0.7,0,1
	h0v0.8c0.7,0,1.4,0.1,2.1,0.1c2.2,0.1,5.2,0.6,7,0.1c2.8-0.1,5.7-0.4,8.4-0.3l4.2,0.2v-4.5c-0.1,0-0.1,0-0.2,0c0-0.1,0-0.1,0-0.2
	c0.1,0,0.2-0.1,0-0.1c0.1-0.8,0.1-1.7,0.1-2.6h-0.6c0-1.5-0.8-2.8-0.9-4.5c0.7-0.2,1.3,0.7,1.3-0.5c0-2.8-0.7-5.3-0.2-8.5
	c0.3,0.2,0.3,1,0.7,0.5c0.1-1.2-0.9-1-1.3-1.6c0.1-0.5,0.2-1,0.2-1.4c2.2-0.1,4.4-0.2,6.5-0.2l4.2,0.2L43.1,30c0-0.2,0-0.3-0.1-0.5
	c-0.3-0.7-1.1-1.3-1.5-2.1c-0.6-1.1-0.6-2.4-1.4-3.2c-0.5-0.4-1.5-0.5-1.9-1c-0.6-0.6-0.9-1.6-1.3-2.4c-0.4-0.8-0.9-1.4-1.4-2.2
	c-0.8-1.4-1.2-3.3-2.7-4.3c0.5-1.9-1.7-3.1-2.9-4.9c-0.4-0.6-1.5-1.3-2.6-2c0-0.1,0.1-0.1,0.1-0.2l-2-1.4l-0.6-0.8L24.6,5.4z"/>
</svg>
