<?xml version="1.0" encoding="utf-8"?>
<!-- Generator: Adobe Illustrator 18.1.1, SVG Export Plug-In . SVG Version: 6.00 Build 0)  -->
<svg version="1.1" id="Layer_1" xmlns="http://www.w3.org/2000/svg" xmlns:xlink="http://www.w3.org/1999/xlink" x="0px" y="0px"
	 viewBox="0 0 18.2 20.9" enable-background="new 0 0 18.2 20.9" xml:space="preserve">
<path fill="#D6D1BA" d="M6.7,19.4c-2.8,0-5.2-2.3-5.2-5.2c0-1.6,0.8-3.2,2.2-4.2l0,0l0-1.8L3.6,8.2C1.4,9.4,0,11.7,0,14.2
	c0,3.7,3,6.7,6.7,6.7c2.7,0,5.1-1.6,6.1-4l0-0.1l-1-2.1l-0.1,0.3C11.3,17.6,9.2,19.4,6.7,19.4"/>
<path fill="#D6D1BA" d="M17.6,16.1l-1.9,0.8l-2.9-6.4H6.4L6.3,9.3h4.5V7.6H6.2L6,3.6l0.1,0c1,0,1.8-0.8,1.8-1.8C7.8,0.8,7,0,6,0
	C5,0,4.2,0.8,4.2,1.8c0,0.1,0,0.2,0,0.3l0,0.1l0,0l0.6,10h6.9l3.1,6.8l3.4-1.4L17.6,16.1z"/>
</svg>
