<?xml version="1.0" encoding="utf-8"?>
<!-- Generator: Adobe Illustrator 18.1.1, SVG Export Plug-In . SVG Version: 6.00 Build 0)  -->
<svg version="1.1" id="Layer_1" xmlns="http://www.w3.org/2000/svg" xmlns:xlink="http://www.w3.org/1999/xlink" x="0px" y="0px"
	 viewBox="0 0 16.6 2609.1" enable-background="new 0 0 16.6 2609.1" xml:space="preserve">
<path fill="#F5EFE6" d="M13.7,2609.1c-0.4-1.4-0.7-3.3-1.4-4c0.8-2,0.7-1.9,0.9-5.2c0.7-12.4,0.1-24.6,0.2-38.8
	c0.1-23.7,0.1-46.9-0.2-69.9c-0.1-7.5-0.7-15,0-21.4c-0.9-3.6-0.5-8.9-0.3-15.6c0.1-3.6,0.3-7.1,0.3-10.7c0.1-7.6-0.4-15.5-0.3-22.7
	c0-3.5,0.2-7.4,0.3-11.1c0.1-3.6,0.5-8.3,0.3-11.1c-0.1-1.5-0.2-1.1-0.5-2.2c-0.8-3.5,0-11.3,0-17.4c0-5.1-0.5-10.8-0.3-14.3
	c0.1-2,0.8-3.6,0.9-5.3c0.2-3-0.2-7.4-0.3-11.1c-0.1-3.7-0.3-7.5-0.3-11.1c0-6.9,0.4-14.8,0.3-22.3c0-3.4-0.3-7.3-0.3-10.7
	c-0.1-4-0.5-8.4-0.3-11.1c0.1-2.2,0.8-2.8,0.7-4.9c-0.7-6.9-0.1-13.8,0-20.9c0.3-23.9,0.3-46.6,0.2-69.9
	c-0.1-14.5,0.5-27.1-0.2-38.8c-0.2-3.5-0.2-7.1-0.9-9.4c0.9,0,0.9-2.5,1.4-3.6c-1.5-5.1,0.4-13.9-1-18.7c0.4-2.8,0.8-5.5,0.9-8.5
	c0-2.8-0.7-5.5-0.7-8.5c0-3,0.9-5.2,0.7-8.5c-1.4,0.9-1-4.5-0.9-9.4c0.1-2.7,0.3-5.2,0.2-7.6c-0.1-2.7-0.7,2.3-0.9-0.4
	c0-2.1,1.1-1.2,1.2-3.1c-0.4-4.1-0.8-8.7,0.3-11.1c-0.2-2.3-1-3-1.2-5.3c1.9-3.1,0.2-8.6,0.2-14.3c0-2.1,0.3-5.1,0.3-7.1
	c0.2-4.9,1-9.1-0.5-11.1c0.9,0,0.6-2.2,0.7-3.6c0.3-6,0.2-11.4,0.2-16.9c0-5.5-0.4-11.1-0.2-15.6c0.1-1.6,0.5-2.1,0.7-3.6
	c0.1-0.6-0.2-1.1-0.2-2.2c0-0.9,0.3-1.8,0.3-1.8c-0.1-2.8-0.9-4.1-1-6.2c0.5-2,0.5-5.1,0.9-7.6c-0.1-1.7-0.4-3.1-0.5-5.8
	c-0.1-3.8,0.3-8.2,0.3-12.5c0-4.3,0.3-8.7,0.2-12.9c-0.1-2.3-0.5-4.8-0.5-7.1c0-4,0.7-7.8,0.7-11.6c0-3.1-0.9-6.4-0.9-9.4
	c0-2,0.6-4.2,0.7-6.2c0-1.3-0.2-3-0.2-4.5c0-1.6,0.3-2.9,0.3-4.5c0.2-9.9-0.4-19.8-0.3-29.8c0-36.5-0.8-74.2-0.2-109.6
	c0.4-21.5-0.4-42.2,0.2-62.8c0.1-2.2,0.3-4.5,0.3-6.7c0.1-5.1-0.4-10.9-0.3-15.1c0-1.8,0.4-2.9,0.3-4.5c-0.1-3.1-0.8-5.9-0.9-8.9
	c0-3.1,0.5-6.8,0.7-10.2c0.7-13.5,0.8-33.2,0.3-47.7c-0.2-7.4-1.2-15.5,0-23.2c0.4-1.1-0.3-1.4-0.3-1.8c-0.5-2.1,0.1-6.4,0.2-9.8
	c0.1-3.3,0.1-6.9,0-10.7c0-0.6-0.3-1.2-0.3-1.8c0-0.6,0.3-1.2,0.3-1.8c0-1.6-0.2-3-0.2-4.5c0-3.5-0.1-7.1-0.2-10.7
	c-0.1-3.6-0.5-7.6-0.3-10.2c0.1-2.6,0.7-3.3,0.9-5.8c0.3-6.5-0.5-14.2-0.5-21.4c0-7.1,0.5-14.7,0.5-22.3c0-10.1-1.2-20.9,0.2-27.2
	c-0.5-2.2-0.4-4.7-0.3-7.1c0.1-10.4,0.2-22.2,0.3-31.6c0-3.6,0.3-7.5,0.2-10.7c-0.1-3-0.9-5.6-1-8.5c-0.2-4.6,0.4-10,0.5-15.6
	c0.1-4.5-0.3-9.2-0.2-12.9c0.1-2.9,0.7-5.6,0.7-8.5c0-2.9-0.6-5.8-0.7-8.5c-0.2-6.2,0.1-12.3,0.2-18.3c0.1-6.4-0.3-12.8,0.3-19.2
	c-0.6-1.4-0.7-2.3-0.9-4.9c-0.1-2.6,0.2-5.2,0.3-7.1c-0.9-3.6-0.5-8.8-0.3-15.6c0.1-3.5,0.3-7,0.3-10.7c0.1-7.5-0.4-15.6-0.3-22.7
	c0-3.5,0.2-7.1,0.3-10.7c0.1-3.5,0.5-7.8,0.3-10.7c-0.1-2.2-0.8-4.2-0.9-6.2c-0.2-4.5,0.7-10.7,0.5-14.7c0.3-2.4-1-0.3-0.7-2.7
	c0.3-24.9,0.3-49.9,0.3-74c0-8.6-0.1-17.5,0.2-25.8c0.1-2.2,0.3-4.5,0.3-6.7c0.1-5-0.4-11-0.3-15.1c0-1.7,0.4-2.9,0.3-4.5
	c-0.1-3-0.8-5.9-0.9-8.9c0-4,0.6-8.6,0.9-12.9c0.3-4.8,0.3-9.7,0.3-14.7c0-10,0.2-20.5-0.2-30.7c-0.3-7.2-1.2-15.2,0-22.7
	c0.4-1.1-0.3-1.4-0.3-1.8c-0.5-2.1,0.1-6.1,0.2-9.4c0.1-3.4,0.1-7.3,0-11.1c0-0.6-0.3-1.2-0.3-1.8c0-0.6,0.3-1.2,0.3-1.8
	c0-1.5-0.2-2.9-0.2-4.5c0-3.4-0.1-7.1-0.2-10.7c-0.1-3.5-0.5-7.6-0.3-10.2c0.1-2.6,0.7-3.3,0.9-5.8c0.3-6.5-0.5-14.1-0.5-21.4
	c0-7.1,0.5-14.9,0.5-22.3c0-10.2-1.2-20.7,0.2-27.2c-0.5-2.2-0.4-4.8-0.3-7.1c0.1-10.4,0.2-22.1,0.3-31.6c0-3.8,0.3-7.5,0.2-10.7
	c-0.2-3-0.9-5.9-1-8.9c-0.2-4.6,0.4-10,0.5-15.6c0.1-4.2-0.3-8.5-0.2-12c0.1-3.1,0.7-5.9,0.7-8.9c0-2.7-0.6-5.5-0.7-8
	c-0.5-12.6,0.4-24.8,0.3-37.9c0.3-0.8-0.2-1.4-0.3-1.8c-0.7-2.7-0.4-8.4,0.2-10.7c-1.3-3.4-0.7-8.9-0.5-15.1c0.1-3.5,0.3-7,0.3-10.7
	c0.1-7.5-0.4-15.7-0.3-22.7c0-3.6,0.2-7.5,0.3-11.1c0.1-3.9,0.5-8.2,0.3-11.1c-0.1-1.5-0.2-1-0.5-2.2c-0.7-3-0.1-9.1,0-12.9
	c0.3-11.2,0.5-18.2,0.2-27.6c0.3-2.4-0.7-1.1-0.5-3.1c0.3-24.6,0.3-49.9,0.3-74c0-10.3,0.3-20.7,0.2-29.4c-0.1-3.1,0.1-6.5,0-9.4
	c-0.1-2.2-0.7-4.1-0.7-6.2c0-3.1,0.8-6.3,0.9-9.4c0-3.9-0.7-7.7-0.7-11.6c0-2.4,0.5-4.8,0.5-7.1c0.1-4.2-0.1-8.8-0.2-12.9
	c0-4.3-0.5-8.7-0.3-12.5c0.1-2.2,0.5-3.7,0.5-5.8c-0.4-2.3-0.4-5.4-0.9-7.6c0.2-1.8,0.9-3.2,1-5.8c0,0-0.3-0.8-0.3-1.8
	c0-2.5,0-2-0.3-3.6c-0.9-4.5,0-12.3,0-18.3c0-3.5-0.2-7.2-0.2-10.7c0-4.2,0.4-8.3-0.7-9.8c1-0.2,0.8-2.1,0.9-3.6
	c0.2-4.1-0.8-11-0.7-15.1c0.1-3.2,0.7-6.1,0.7-8.5c0-2.3-0.4-3.9-0.9-5.3c0.3-1.8,1-2.8,1.2-4.9c-1.1-2.5-0.7-7-0.3-11.1
	c-0.1-2-1.4-0.9-1.2-3.6c0.4-1.6,0.8,2.9,0.9-0.4c0.1-6.7-0.3-9.8-0.3-15.6c-0.1-1.9,1.6,0.9,1-1.3c0.1-3.2-0.7-5.3-0.7-8.5
	c0-2.7,0.7-5.2,0.7-8c0-3.1-0.5-5.8-0.9-8.9c1.5-4.5-0.5-13.4,1-18.3c-0.4-1.4-0.7-3.3-1.4-4c0.8-2,0.7-5.6,0.9-8.9
	c0.7-12.4,0.1-24.6,0.2-38.8c0.1-23.7,0.1-46.9-0.2-69.9c-0.1-7.6-0.7-15,0-21.4c-0.9-3.7-0.5-8.6-0.3-15.6
	c0.1-3.4,0.3-7.1,0.3-10.7c0.1-7.5-0.4-15.6-0.3-22.7c0-3.5,0.2-7.5,0.3-11.1c0.1-3.7,0.5-8.3,0.3-11.1c-0.1-1.5-0.2-1-0.5-2.2
	c-0.7-3.1-0.1-10.7,0-15.6c0.1-4.7,0.3-10.1,0.5-12H27c-0.4,6.3-0.2,11.4-0.2,17.8c0,0.9-0.4,1.6-0.3,2.7c0,0.9,0.4,1.5,0.3,2.2
	c0,0.8-0.3,1.8-0.3,2.7c-0.2,5.4,0,12.7,0.5,17.4c0.2,2.2-0.7,1.8-0.9,3.1c1.4,5.4,0.5,14.4,0.2,23.2c-0.1,3.1,0.1,6.6,0,9.8
	c-0.2,13.5-0.3,27,0.3,38.8c0.2,3.4,0.7,6.9,0.7,9.8c0,3.1-0.8,6.2-0.9,9.4c0,1.4,0.3,2.6,0.3,4c0.1,5.3-0.5,11.1-0.3,16.5
	c0,1.4,0.3,2.7,0.3,4c0.4,8.7,0.2,18.6,0.2,27.6c0,23.9,0.3,49,0.3,73.5c0,19.4-0.4,38.7-0.3,57c0,9.9-0.5,19.7-0.3,29
	c0,1.3,0.3,3,0.3,4.5c0,1.9-0.2,4-0.2,5.8c0.1,2.2,0.6,3.1,0.7,5.3c0.1,3.2-0.8,6.6-0.9,9.8c0,4,0.8,8,0.7,12c0,1.9-0.4,3.8-0.5,5.8
	c-0.2,5.6,0.1,12.3,0.2,17.8c0.1,4.8,0.9,9.6-0.3,13.8c0.6,2.1,0.5,5.9,1,8c-0.2,2.3-0.8,3.4-1,5.3c0.4,2.7,0.1,5.3,0.9,7.6
	c-0.1,12.4-0.1,21.6,0,34.8c-0.2,1.9,0.4,1.8,0.7,2.2c0,1.4-1,0.3-0.9,2.2c-0.3,5.6,0.8,10.8,0.7,16.5c-0.1,5.1-1.7,11.1,0.2,13.8
	c-0.2,2.1-0.9,3.1-1.2,4.9c1,3,0.7,7.4,0.3,12c0.3,1.2,1.3,0.8,1.2,3.1c-0.5,1.3-0.3-1.1-0.9-0.9c-0.1,7.1,0.2,10.8,0.3,16.5
	c0,2.2-0.5,0.4-1.2,0.9c0.1,3.2,0.9,5.8,0.9,8.9c0,2.8-0.7,5.3-0.7,8c0,3.1,0.4,6,0.9,8.9c-1.4,5,0.4,13.7-1,19.2
	c0.7,0.4,0.4,3.4,1.4,3.1c-0.6,2.1-0.7,5.7-0.9,8.9c-0.7,12.8,0.1,27.6-0.2,43.2c-0.4,22.1-0.2,44.8,0.2,68.2
	c0.1,7.9,0.9,13.6-0.2,19.2c1.4,3.6,0.6,9,0.3,17.4c-0.5,17.4,0.7,37.3-0.5,53.9c-0.1,1.3,0.7,2.6,0.9,4.5c0.1,2.1-0.3,5.5-0.3,9.4
	c-0.1,3.4-0.1,7.4,0,10.7c0.1,5.9,0.8,10.8-0.5,13.8c1.2,15.8,0,35.8,0.5,53.9c0.2,7.1,1.1,13.7-0.3,17.4c1,4.9,0.3,11.3,0.2,19.2
	c-0.3,14.8-0.1,28.7-0.3,43.7c-0.1,8.2,0,16.4,0.2,24.5c0.3,15.8-0.6,29.6,0.2,43.2c0.2,3.5,0.2,7,0.9,9.4c-1-0.5-0.5,2.9-1.4,2.7
	c1.4,5.7-0.4,14.4,1,19.6c-0.4,2.9-0.8,5.4-0.9,8.5c0,2.7,0.7,5.4,0.7,8c0,3.4-0.7,5.8-0.9,8.9c0.3,1.6,1.2-1,1.2,0.9
	c-0.1,6-0.4,9.6-0.3,16.9c0.6,0.2,0.4-2.2,0.9-0.9c0,2-0.6,2.3-1.2,2.7c0.2,4.6,0.9,9.4-0.3,12c0.2,2.3,1,3,1.2,5.3
	c-1.8,2.2-0.3,8-0.2,13.4c0.1,5.7-1,11-0.7,16.5c-0.2,2,0.5,1.6,0.9,2.2c0,1.4-1,0.2-0.7,2.2c0.1,5.3,0,10.7-0.2,15.6
	c-0.2,6.6,0.5,13.5,0.2,19.2c-0.1,1.6-0.5,2.5-0.7,4c-0.1,1.4,0.4,2.6-0.2,3.6c0.1,2.5,0.9,3.3,1,5.8c-0.5,2-0.5,5.1-0.9,7.6
	c0,1.5,0.4,3,0.5,4.5c0.1,2.8-0.3,6-0.3,9.4c-0.1,5.5-0.4,12.1-0.2,17.8c0.1,2,0.5,3.9,0.5,5.8c0.1,4.1-0.7,8-0.7,12
	c0,3.3,0.9,6.6,0.9,9.8c0,1.8-0.6,3.5-0.7,5.3c-0.1,1.8,0.2,3.9,0.2,5.8c0,1.6-0.3,2.8-0.3,4.5c-0.2,9.3,0.4,19.5,0.3,29.4
	c0,12.1-0.1,25.4,0.2,38.3c0.2,10.6-0.5,21.5,0,31.2c0,0.8,0.1,1.8,0.3,2.7c-0.3,25-0.4,49.9-0.3,74c0,8.8,0.2,18.2-0.2,26.7
	c-0.1,1.5-0.3,2.9-0.3,4.5c-0.1,5.4,0.5,11.4,0.3,16.9c0,1.2-0.4,2.4-0.3,3.6c0,3.2,0.8,6.2,0.9,9.4c0.1,5.7-1,13.8-1.2,20.5
	c-0.3,8.6,0,18.6,0.2,27.6c0.1,3.6-0.1,7,0,10.2c0.3,8.5,1.2,16.8,0,23.2c-0.5,1.7,1,1.1,0.7,3.6c-0.5,4.4-0.7,10.9-0.5,17.4
	c0,0.9,0.3,1.8,0.3,2.7c0,1-0.3,2.1-0.3,3.1c0,1,0.2,1.8,0.2,2.7c0,2.3,0.1,4.7,0.2,7.1c0.1,5.1,0.6,11,0.3,14.7
	c-0.1,2.4-0.7,2.6-0.9,4.9c0.9,13.9,0,29.6,0,44.6c0,3.6,0.3,7.4,0.3,11.1c0.1,5.6,0.5,12.1-0.5,15.6c0.5,8.2,0.2,21,0.2,30.7
	c0,6.5-0.6,13.6-0.3,19.2c0.1,2.9,0.9,5.1,1,7.6c0.3,5.5-0.4,10.2-0.5,16c-0.1,4.3,0.4,8.9,0.2,13.4c-0.1,2.7-0.7,5.3-0.7,8
	c0,2.7,0.6,5.3,0.7,8c0.2,5,0.1,11,0,16.5c-0.1,7.5,0,15.1-0.5,21.8c0.3,1.3,0.7,1.6,0.9,3.6c0.3,2.9-0.1,6.9-0.5,8.5
	c1.4,3.4,0.5,9.6,0.3,17.4c-0.4,17.1,0.7,38.2-0.5,53.9c0,1.9,0.7,2.5,0.9,4.5c0.3,4.6-0.7,11.2-0.5,16c-0.3,1.8,0.7,0.2,0.7,1.3
	c-0.3,25.2-0.4,50.2-0.3,74.4c0,8.9,0.2,18.6-0.2,27.2c-0.1,1.3-0.3,2.7-0.3,4c-0.1,5.4,0.5,11.4,0.3,16.9c0,1.2-0.4,2.4-0.3,3.6
	c0,3.2,0.8,6.2,0.9,9.4c0.1,5.7-1,13.7-1.2,20.5c-0.3,8.6,0,18.6,0.2,27.6c0.1,3.6-0.1,7,0,10.2c0.3,8.6,1.2,16.6,0,23.2
	c-0.5,1.7,1,1.1,0.7,3.6c-0.5,4.4-0.7,10.9-0.5,17.4c0,0.9,0.3,1.8,0.3,2.7c0,1-0.3,2.1-0.3,3.1c0,1,0.2,1.8,0.2,2.7
	c0,2.3,0.1,4.7,0.2,7.1c0.1,5.1,0.6,11,0.3,14.7c-0.1,2.4-0.7,2.6-0.9,4.9c0.9,13.9,0,29.6,0,44.5c0,3.6,0.3,7.4,0.3,11.1
	c0.1,5.6,0.5,12.1-0.5,15.6c0.5,8.2,0.2,21,0.2,30.7c0,6.5-0.6,13.6-0.3,19.2c0.1,2.9,0.9,5.1,1,7.6c0.3,5.5-0.4,10.2-0.5,16
	c-0.1,4.3,0.4,8.9,0.2,13.4c-0.1,2.7-0.7,5.3-0.7,8c0,2.8,0.6,5.3,0.7,8c0.2,5,0.1,11,0,16.5c-0.1,7.5,0,15.1-0.5,21.8
	c0.3,1.3,0.7,1.6,0.9,3.6c0.3,2.9-0.1,6.9-0.5,8.5c1.4,3.4,0.5,9.6,0.3,17.4c-0.4,17.1,0.7,38.2-0.5,53.9c0.1,2.1,0.7,2.4,0.9,4.5
	c0.3,4.6-0.4,10.8-0.5,16c-0.1,2.5,0,4.8,0,7.6c0,0.2-0.3,1.2-0.3,1.3c-0.1,1,0.2,1.1,0.2,1.8c0,2.5,0.2,3.4,0.2,8.3"/>
</svg>
