<?xml version="1.0" encoding="utf-8"?>
<!-- Generator: Adobe Illustrator 15.0.2, SVG Export Plug-In . SVG Version: 6.00 Build 0)  -->
<!DOCTYPE svg PUBLIC "-//W3C//DTD SVG 1.1//EN" "http://www.w3.org/Graphics/SVG/1.1/DTD/svg11.dtd">
<svg version="1.1" id="Layer_1" xmlns="http://www.w3.org/2000/svg" xmlns:xlink="http://www.w3.org/1999/xlink" x="0px" y="0px"
	 width="800.514px" height="8.912px" viewBox="-308.243 102.486 800.514 8.912"
	 enable-background="new -308.243 102.486 800.514 8.912" xml:space="preserve">
<path fill="#F5EFE6" d="M491.329,108.824c-7.623,0.6-23.638,0.257-32.631,0.257c-5.909,0-12.504-0.771-17.557-0.428
	c-2.826,0.257-4.796,1.113-7.023,1.199c-5.053,0.428-9.421-0.428-14.73-0.6c-3.939-0.085-8.136,0.428-12.247,0.257
	c-2.483-0.085-4.796-0.771-7.365-0.771s-4.796,0.685-7.365,0.771c-4.539,0.257-10.021,0.086-15.073,0
	c-6.938-0.085-13.875,0-19.955-0.6c-1.199,0.343-1.456,0.771-3.255,1.028c-2.655,0.343-6.252-0.085-7.793-0.6
	c-3.254,1.713-8.222,0.686-15.93,0.428c-15.93-0.599-34.257,0.771-49.502-0.599c-1.884,0.085-2.227,0.856-4.111,1.027
	c-2.569,0.257-6.509-0.342-9.42-0.428c-9.935-0.428-17.386-0.599-26.122-0.257c-1.542-0.342-0.856,0.6-1.713,0.6
	c-22.781-0.343-45.991-0.428-68.258-0.428c-9.078,0-17.985-0.685-26.55-0.428c-1.37,0-2.826,0.343-4.111,0.428
	c-1.798,0-3.597-0.343-5.396-0.257c-1.713,0.085-3.254,0.771-4.881,0.771c-2.912,0.086-6.167-1.027-9.079-1.027
	c-3.597,0-7.022,0.856-10.62,0.771c-1.884,0-3.683-0.6-5.738-0.6c-5.139-0.257-11.134,0.086-16.272,0.257
	c-4.539,0.085-8.735,1.113-12.589-0.428c-1.884,0.685-5.481,0.599-7.366,1.199c-2.141-0.257-3.168-0.856-4.881-1.199
	c-2.484,0.428-4.796,0.085-6.938,1.027c-11.391-0.085-19.869-0.085-31.859,0c-1.798-0.257-1.542,0.428-1.97,0.771
	c-1.371,0-0.343-1.199-1.97-1.028c-5.139-0.342-9.935,0.856-15.074,0.771c-4.71-0.086-10.277-1.97-12.589,0.257
	c-1.884-0.257-2.826-1.028-4.454-1.456c-2.826,1.199-6.852,0.856-11.048,0.428c-1.114,0.428-0.686,1.542-2.912,1.456
	c-1.028-0.428,0.428-0.428,0.771-0.771c-5.738-0.599-10.192,0.257-15.073,0.257c-1.97,0-0.428-0.6-0.771-1.456
	c-2.998,0.085-5.396,1.028-8.136,1.028c-2.569,0-4.796-0.771-7.365-0.771c-2.826,0-5.481,0.6-8.136,1.028
	c-4.539-1.713-12.59,0.428-17.557-1.199c-0.342,0.771-3.169,0.428-2.912,1.542c-2.312-0.771-5.567-0.771-8.564-1.027
	c-11.733-0.771-24.751,0.085-39.225-0.257c-20.555-0.428-41.28-0.257-62.52,0.257c-6.338,0.085-12.847,1.027-17.557-0.257
	c-3.254,1.713-8.564,0.686-15.93,0.428c-15.673-0.599-35.028,0.771-49.502-0.599c-1.37-0.086-2.312,0.856-4.111,1.027
	c-2.569,0.257-7.708-0.257-11.819-0.428c-4.796-0.257-12.846-0.342-14.816-0.685v-7.023c7.451,0.771,50.016,1.713,72.369,1.713
	c8.051,0,16.272-0.085,24.152,0.257c1.798,0.085,3.768,0.342,5.738,0.428c4.539,0.085,10.02-0.6,13.874-0.428
	c1.542,0,2.655,0.428,4.111,0.428c2.826-0.086,5.481-1.028,8.136-1.028c2.826,0,5.91,0.6,8.907,0.771
	c8.393,0.599,17.128,0.599,27.063,0.599c5.738,0,11.733,0,17.214-0.257c6.852-0.257,14.217-1.456,21.24,0
	c1.027,0.428,1.113-0.257,1.713-0.428c2.227-0.685,8.821,0.257,13.532,0.257c3.939,0,7.622-0.257,9.849-0.257
	c3.34,0,6.594-0.085,10.62-0.257c3.597-0.086,8.136-0.685,11.391-0.428c2.312,0.257,2.998,0.856,5.396,1.028
	c5.91,0.342,12.932-0.6,19.698-0.6c6.595,0,13.874,0.685,20.897,0.6c9.164,0,18.67-1.371,24.58,0.257
	c7.28-0.771,14.816-0.086,22.096,0c3.597,0,7.279,0,11.048,0c3.939,0,8.222,0.428,11.819,0.257c2.826-0.085,5.481-1.028,8.136-1.199
	c4.368-0.257,9.506,0.6,14.73,0.6c3.94,0.086,7.794-0.342,11.048-0.257c2.826,0.086,5.481,0.771,8.136,0.771
	c2.655,0,5.224-0.685,7.793-0.771c11.391-0.428,22.439,0.428,34.258,0.428c0.856,0.343,1.113-0.257,1.713-0.428
	c2.483-0.771,6.937-0.343,9.42,0c3.34-1.113,8.136-0.6,14.303-0.428c3.169,0.085,6.595,0.343,9.849,0.428
	c6.937,0.086,14.302-0.428,20.897-0.428c3.254,0,6.595,0.343,9.849,0.428c3.34,0.086,7.108,0.6,9.849,0.428
	c2.227-0.085,1.798-0.342,2.912-0.6c3.255-0.771,8.907-0.085,13.104,0c5.225,0.257,10.192,0.343,13.875,0.428
	c1.113,0,2.312,0,3.683,0c2.998-0.085,6.509,0,9.421-0.771c22.524,0.342,45.819,0.342,67.83,0.428
	c9.421,0,19.013,0.428,27.063,0.257c2.912-0.085,5.909,0.085,8.564,0c1.97-0.085,3.768-0.771,5.738-0.771
	c2.826,0,5.824,1.028,8.564,1.028c3.34,0,6.938-0.856,10.192-0.771c2.483,0,5.053,0.6,7.365,0.6
	c3.683,0.086,7.708-0.085,11.391-0.257c3.939,0,8.051-0.6,11.391-0.428c1.97,0.085,3.34,0.6,5.396,0.6
	c2.142-0.428,4.882-0.6,6.938-1.028c2.654,1.028,5.738,1.37,9.078,0.771c5.053-1.199,11.647-0.343,17.985-0.428
	c3.254,0,6.595-0.257,9.849-0.257c3.598,0,7.708,0.599,8.907-0.771c0.257,1.199,1.884,1.37,3.255,1.028
	c4.881-1.028,10.962,0,12.589-0.086"/>
</svg>
