<?xml version="1.0" encoding="utf-8"?>
<!-- Generator: Adobe Illustrator 18.1.1, SVG Export Plug-In . SVG Version: 6.00 Build 0)  -->
<svg version="1.1" id="Layer_1" xmlns="http://www.w3.org/2000/svg" xmlns:xlink="http://www.w3.org/1999/xlink" x="0px" y="0px"
	 viewBox="-308.5 -196.4 934.1 10.4" enable-background="new -308.5 -196.4 934.1 10.4" xml:space="preserve">
<path fill="#F5EFE6" d="M625.4-196.1c-8.9,0.7-27.6,0.3-38.1,0.3c-6.9,0-14.6-0.9-20.5-0.5c-3.3,0.3-5.6,1.3-8.2,1.4
	c-5.9,0.5-11-0.5-17.2-0.7c-4.6-0.1-9.5,0.5-14.3,0.3c-2.9-0.1-5.6-0.9-8.6-0.9s-5.6,0.8-8.6,0.9c-5.3,0.3-11.7,0.1-17.6,0
	c-8.1-0.1-16.2,0-23.3-0.7c-1.4,0.4-1.7,0.9-3.8,1.2c-3.1,0.4-7.3-0.1-9.1-0.7c-3.8,2-9.6,0.8-18.6,0.5c-18.6-0.7-40,0.9-57.8-0.7
	c-2.2,0.1-2.6,1-4.8,1.2c-3,0.3-7.6-0.4-11-0.5c-11.6-0.5-20.3-0.7-30.5-0.3c-1.8-0.4-1,0.7-2,0.7c-26.6-0.4-53.7-0.5-79.7-0.5
	c-10.6,0-21-0.8-31-0.5c-1.6,0-3.3,0.4-4.8,0.5c-2.1,0-4.2-0.4-6.3-0.3c-2,0.1-3.8,0.9-5.7,0.9c-3.4,0.1-7.2-1.2-10.6-1.2
	c-4.2,0-8.2,1-12.4,0.9c-2.2,0-4.3-0.7-6.7-0.7c-6-0.3-13,0.1-19,0.3c-5.3,0.1-10.2,1.3-14.7-0.5c-2.2,0.8-6.4,0.7-8.6,1.4
	c-2.5-0.3-3.7-1-5.7-1.4c-2.9,0.5-5.6,0.1-8.1,1.2c-13.3-0.1-23.2-0.1-37.2,0c-2.1-0.3-1.8,0.5-2.3,0.9c-1.6,0-0.4-1.4-2.3-1.2
	c-6-0.4-11.6,1-17.6,0.9c-5.5-0.1-12-2.3-14.7,0.3c-2.2-0.3-3.3-1.2-5.2-1.7c-3.3,1.4-8,1-12.9,0.5c-1.3,0.5-0.8,1.8-3.4,1.7
	c-1.2-0.5,0.5-0.5,0.9-0.9c-6.7-0.7-11.9,0.3-17.6,0.3c-2.3,0-0.5-0.7-0.9-1.7c-3.5,0.1-6.3,1.2-9.5,1.2c-3,0-5.6-0.9-8.6-0.9
	c-3.3,0-6.4,0.7-9.5,1.2c-5.3-2-14.7,0.5-20.5-1.4c-0.4,0.9-3.7,0.5-3.4,1.8c-2.7-0.9-6.5-0.9-10-1.2c-13.7-0.9-28.9,0.1-45.8-0.3
	c-24-0.5-48.2-0.3-73,0.3c-7.4,0.1-15,1.2-20.5-0.3c-3.8,2-10,0.8-18.6,0.5c-18.3-0.7-40.9,0.9-57.8-0.7c-1.6-0.1-2.7,1-4.8,1.2
	c-3,0.3-9-0.3-13.8-0.5c-5.6-0.3-15-0.4-17.3-0.8v-8.2c8.7,0.9,58.4,2,84.5,2c9.4,0,19-0.1,28.2,0.3c2.1,0.1,4.4,0.4,6.7,0.5
	c5.3,0.1,11.7-0.7,16.2-0.5c1.8,0,3.1,0.5,4.8,0.5c3.3-0.1,6.4-1.2,9.5-1.2c3.3,0,6.9,0.7,10.4,0.9c9.8,0.7,20,0.7,31.6,0.7
	c6.7,0,13.7,0,20.1-0.3c8-0.3,16.6-1.7,24.8,0c1.2,0.5,1.3-0.3,2-0.5c2.6-0.8,10.3,0.3,15.8,0.3c4.6,0,8.9-0.3,11.5-0.3
	c3.9,0,7.7-0.1,12.4-0.3c4.2-0.1,9.5-0.8,13.3-0.5c2.7,0.3,3.5,1,6.3,1.2c6.9,0.4,15.1-0.7,23-0.7c7.7,0,16.2,0.8,24.4,0.7
	c10.7,0,21.8-1.6,28.7,0.3c8.5-0.9,17.3-0.1,25.8,0c4.2,0,8.5,0,12.9,0c4.6,0,9.6,0.5,13.8,0.3c3.3-0.1,6.4-1.2,9.5-1.4
	c5.1-0.3,11.1,0.7,17.2,0.7c4.6,0.1,9.1-0.4,12.9-0.3c3.3,0.1,6.4,0.9,9.5,0.9s6.1-0.8,9.1-0.9c13.3-0.5,26.2,0.5,40,0.5
	c1,0.4,1.3-0.3,2-0.5c2.9-0.9,8.1-0.4,11,0c3.9-1.3,9.5-0.7,16.7-0.5c3.7,0.1,7.7,0.4,11.5,0.5c8.1,0.1,16.7-0.5,24.4-0.5
	c3.8,0,7.7,0.4,11.5,0.5c3.9,0.1,8.3,0.7,11.5,0.5c2.6-0.1,2.1-0.4,3.4-0.7c3.8-0.9,10.4-0.1,15.3,0c6.1,0.3,11.9,0.4,16.2,0.5
	c1.3,0,2.7,0,4.3,0c3.5-0.1,7.6,0,11-0.9c26.3,0.4,53.5,0.4,79.2,0.5c11,0,22.2,0.5,31.6,0.3c3.4-0.1,6.9,0.1,10,0
	c2.3-0.1,4.4-0.9,6.7-0.9c3.3,0,6.8,1.2,10,1.2c3.9,0,8.1-1,11.9-0.9c2.9,0,5.9,0.7,8.6,0.7c4.3,0.1,9-0.1,13.3-0.3
	c4.6,0,9.4-0.7,13.3-0.5c2.3,0.1,3.9,0.7,6.3,0.7c2.5-0.5,5.7-0.7,8.1-1.2c3.1,1.2,6.7,1.6,10.6,0.9c5.9-1.4,13.6-0.4,21-0.5
	c3.8,0,7.7-0.3,11.5-0.3c4.2,0,9,0.7,10.4-0.9c0.3,1.4,2.2,1.6,3.8,1.2c5.7-1.2,12.8,0,14.7-0.1"/>
</svg>
